<svg width="133" height="60" viewBox="0 0 133 60" fill="none" xmlns="http://www.w3.org/2000/svg">
  <path d="m15.0733 39.0365 3.2763.0865-2.8827-1.5892-3.8507-.2486 3.4571 1.7513ZM17.9773 35.9891l4.5527-3.0594-5.4143.627-5.4995 3.4162 6.3611-.9838ZM19.9452 24.5293l-5.1059 4.5838-3.2231 7.5027 5.8292-5.6433 2.4998-6.4432ZM11.265 18 9.27588 28.0324l1.98912 8.4217 1.9892-8.4217L11.265 18ZM7.69084 29.1131l-5.10588-4.5838 2.49975 6.4432 5.82919 5.6433-3.22306-7.5027ZM5.41435 33.5567 0 32.9297l4.55274 3.0594 6.36106.9838-5.49945-3.4162ZM4.18066 39.123l3.27627-.0865 3.45707-1.7513-3.85064.2486-2.8827 1.5892ZM11.2647 41.599l.4362-1.8487-.4362-2.2054-.4361 2.2054.4361 1.8487ZM95.4906 23.5577h3.9251v2.1621c.7023-1.3837 1.5953-2.4973 3.1593-2.4973 2.255 0 3.425 1.9568 3.425 4.7244V41.655h-3.925v-12.8c0-1.3189-.5-2.0649-1.298-2.0649-.7975 0-1.3613.746-1.3613 2.0649v12.8h-3.9251V23.5577Zm-38.9962 9.8594v-1.6216c0-6.454 1.6594-8.573 3.7869-8.573 1.7339 0 2.5317 1.4487 3.1273 2.5298v-7.7406h3.9252V41.655h-3.9252v-2.2595c-.5637 1.0811-1.3934 2.6054-3.1273 2.6054-2.1275-.0108-3.7869-2.0648-3.7869-8.5838Zm6.9462-.2054v-1.2108c0-3.2108-.5638-4.9621-1.5637-4.9621-.9999 0-1.4573 1.7621-1.4573 4.9621v1.2108c0 3.2433.468 4.973 1.4573 4.973.9999 0 1.5637-1.7297 1.5637-4.973Zm-34.0392-15.2h4.0208l2.8615 8.6487 2.8614-8.6487h4.0209V41.655h-3.8826V27.3739l-2.9572 8.9514h-.0638l-2.9572-8.9514v14.2919h-3.8826V18.0117h-.0212Zm18.9981 15.9027c0 1.5676.2234 4.5082 1.7551 4.519.9255.0108 1.0957-1.3406 1.3616-2.8l3.8826.0108c-.234 2.0648-1.5318 6.3351-5.3399 6.3351-4.0953 0-5.9462-4.4432-5.9462-9.3838 0-5.0486 1.9572-9.3081 5.893-9.3081 4.1166 0 5.5527 4.7676 5.5527 9.427v1.2109h-7.1589v-.0109Zm3.1912-3.4054c-.1596-1.4594-.1277-3.5892-1.6063-3.5892-1.2126 0-1.5211 2.3892-1.5849 3.5892h3.1912Zm16.743-12.4973h4.0209l2.8614 8.6487 2.8614-8.6487h4.0209V41.655h-3.8826V27.3739l-2.9572 8.9514h-.0638l-2.9678-8.9514v14.2919h-3.8826V18.0117h-.0106Zm18.9981 15.9027c0 1.5676.2234 4.5082 1.7658 4.519.9254.0108 1.0956-1.3406 1.3616-2.8l3.8826.0108c-.2341 2.0648-1.5318 6.3351-5.3399 6.3351-4.0954 0-5.9463-4.4432-5.9463-9.3838 0-5.0486 1.9573-9.3081 5.8931-9.3081 4.1166 0 5.542 4.7676 5.542 9.427v1.2109h-7.1589v-.0109Zm3.1912-3.4054c-.1596-1.4594-.1277-3.5892-1.6062-3.5892-1.2127 0-1.5212 2.3892-1.585 3.5892h3.1912Zm14.158-12.2703c.234.0973.436.2379.596.4109.17.1729.298.3783.404.6162.096.2378.149.4865.149.7567 0 .2703-.053.5298-.149.7568-.096.227-.234.4324-.404.6054-.17.173-.372.3027-.596.4-.234.0973-.479.1513-.744.1513-.266 0-.522-.054-.745-.1513-.234-.0973-.436-.2378-.596-.4-.17-.173-.298-.3784-.393-.6054-.096-.2378-.149-.4865-.149-.7568 0-.2702.053-.5189.149-.7567.095-.2379.234-.4433.393-.6162.17-.173.373-.3136.596-.4109.234-.0973.479-.1513.745-.1513.265.0108.521.054.744.1513Zm-1.383.2595c-.191.0865-.361.2054-.5.346-.138.1513-.255.3243-.329.5189-.075.2054-.117.4108-.117.6486 0 .227.042.4433.117.6487.074.2054.191.3783.329.5189.139.1513.309.2703.5.3567.192.0865.405.1298.639.1298.223 0 .436-.0433.638-.1298.191-.0864.361-.2054.51-.3567.139-.1514.256-.3243.341-.5189.085-.1946.117-.4108.117-.6487 0-.227-.043-.4432-.117-.6486-.085-.1946-.192-.3784-.341-.5189-.138-.1514-.308-.2703-.51-.346-.202-.0757-.404-.1297-.638-.1297-.234 0-.447.0432-.639.1297Zm-.053 2.627V18.909h.84c.245 0 .426.0541.543.1622.117.1081.17.2594.17.454 0 .0973-.01.1838-.042.2487-.032.0757-.064.1297-.117.1838-.054.054-.107.0865-.181.1189-.064.0324-.139.054-.213.0649l.649.9837h-.319l-.617-.9837h-.458v.9837h-.255Zm.872-1.2216c.075 0 .149-.0216.213-.0432.064-.0217.106-.0649.149-.1189.043-.0541.053-.1298.053-.2163 0-.0756-.01-.1405-.042-.1946-.032-.0432-.064-.0864-.117-.1189-.054-.0324-.107-.054-.16-.054-.064-.0108-.128-.0108-.191-.0108h-.49v.7675h.351c.075 0 .149-.0108.234-.0108Z" fill="#fff"/>
</svg>
