<svg width="144" height="60" viewBox="0 0 144 60" fill="none" xmlns="http://www.w3.org/2000/svg">
  <path d="m-3.75777 36.6991 11.84341-7.3675h6.14666c.1893 0 .3629.1498.3629.3628 0 .1736-.0789.2445-.1736.2998l-5.81512 3.4865c-.37874.2288-.51296.6784-.51296 1.0176l-.00788 2.2008h7.39326V23.9282c0-.2445-.1894-.4575-.4734-.4575H7.95157l-11.81192 7.336v5.8924h.10258ZM93.3574 36.6991h10.6516v-2.8634h-7.2746v-2.398h5.8546v-2.8713h-5.8546v-2.2323h7.2746v-2.8634H93.3574v13.2284ZM26.4232 23.4707l-5.0736 13.2284h3.4876l.8836-2.4768h5.6654l.8679 2.4768H35.86l-5.1366-13.2284h-4.3002Zm.2998 7.9355 1.8543-5.1825 1.8226 5.1825H26.723ZM50.3311 26.3341h4.2686v10.365h3.3693v-10.365h4.2529v-2.8634H50.3311v2.8634ZM45.4233 31.6019c0 1.7196-1.0575 2.4137-2.8644 2.4137-1.7515 0-2.8956-.7256-2.8956-2.4137v-8.18h-3.3772v8.5664c0 3.818 3.4087 5.009 6.265 5.009 2.8405 0 6.2334-1.191 6.2334-5.009v-8.5664h-3.3772v8.18h.016ZM131.854 23.4707h-4.016l-4.813 5.3719v-5.3719h-3.378l.016 13.2284h3.362v-5.0246l4.56 5.0246h4.269l-6.155-6.5314 6.155-6.697ZM85.4194 23.4707h-6.186v13.2284h6.186c4.7421 0 6.0519-1.7669 6.0519-6.7127 0-4.6462-1.2545-6.5157-6.0519-6.5157Zm-.1341 10.365h-2.6828v-7.5016h2.6828c2.1146 0 2.7459.5758 2.7459 3.6523 0 2.8081-.7102 3.8493-2.7459 3.8493ZM114.211 28.9132l-3.077-.3473c-1.799-.1971-2.249-.6467-2.249-1.254 0-.6784.923-1.2859 2.73-1.2859 1.736 0 2.643.6469 2.809 1.617h3.306c-.166-2.8002-2.509-4.5356-5.933-4.5356-4.072 0-6.115 1.6171-6.115 4.4805 0 2.327 1.357 3.4235 4.166 3.7231l3.124.3314c1.192.134 1.736.5915 1.736 1.1912 0 .6784-.797 1.2857-2.714 1.2857-2.217 0-3.109-.5601-3.259-1.6881h-3.243c.15 3.0449 2.131 4.5988 6.383 4.5988 3.882 0 6.052-1.7039 6.052-4.2675 0-2.2323-1.286-3.5733-3.716-3.8493ZM70.0726 23.1074c-4.8132 0-7.3065 2.9581-7.3065 6.9415 0 3.9993 2.4933 6.9732 7.3065 6.9732 4.8289 0 7.3222-2.9739 7.3222-6.9732.0079-3.9834-2.4933-6.9415-7.3222-6.9415Zm0 10.9408c-2.4933 0-3.8663-1.5223-3.8663-3.9993 0-2.4295 1.373-3.9676 3.8663-3.9676 2.5169 0 3.8663 1.5381 3.8663 3.9676.0079 2.4848-1.3494 3.9993-3.8663 3.9993Z" fill="#fff"/>
</svg>
