<svg width="126" height="60" viewBox="0 0 126 60" fill="none" xmlns="http://www.w3.org/2000/svg">
  <path d="M2.38005 26.8814h.06396c.83242-1.3124 2.33599-2.336 3.9683-2.336 1.95183 0 3.36001.9919 4.32039 2.6559.9275-1.6 2.7198-2.6559 4.6077-2.6559 3.9365 0 4.9605 3.0719 4.9605 6.464v8.9603h-2.8801v-8.4806c0-1.9197-.2562-4.3836-2.7845-4.3836-3.0719 0-3.296 3.1999-3.296 5.5039v7.3604H8.46063v-7.9363c0-1.9521-.09649-4.928-2.75199-4.928-3.07234 0-3.32845 3.1682-3.32845 5.5039v7.3604H-.5V24.9931h2.88005v1.8883Zm21.54055-1.8877h2.8801v14.9761h-2.8801V24.9937Zm9.38 2.0156h.0637c.8964-1.6001 2.6885-2.4643 4.5122-2.4643 4.2243 0 5.3126 2.8478 5.3126 6.4963v8.9288h-2.8804v-8.5768c0-2.5598-.3517-4.2878-3.296-4.2878-3.7121 0-3.7121 3.2635-3.7121 5.9838v6.8808h-2.8803V24.9932h2.8803v2.0161Zm17.1206 12.9604h-2.8804V27.6813h-1.6007v-2.6878h1.6007V19.114h2.8804v5.8795h2.8156v2.6878h-2.8156v12.2884Zm6.6708-7.0081c.0319 2.5601 1.76 4.96 4.512 4.96 2.2081 0 3.3925-1.1201 4.4805-2.9121l2.4322 1.376c-1.4082 2.5927-4.0322 4.0962-6.9447 4.0962-4.5759 0-7.3599-3.456-7.3599-7.8719 0-4.6087 2.4641-8.0645 7.2962-8.0645 4.7679 0 7.0084 3.5197 7.0084 7.9684v.4479H57.092Zm8.5445-2.176c-.3523-2.2406-1.8244-3.7446-4.1285-3.7446-2.2401 0-3.904 1.6001-4.2563 3.7446h8.3848Zm17.2546 6.8479h-.0646c-1.1517 1.696-2.9762 2.8482-5.0882 2.8482-4.608 0-7.1681-3.8081-7.1681-8.0963 0-4.096 2.7199-7.8401 7.0402-7.8401 2.2399 0 4.032 1.1519 5.2161 2.944h.0646V17.5h2.8797v22.4695h-2.8797v-2.336Zm.1595-5.152c0-2.9122-1.76-5.3763-4.864-5.3763-2.9761 0-4.7363 2.592-4.7363 5.3763 0 2.816 1.6962 5.4401 4.7363 5.4401 3.1356 0 4.864-2.4961 4.864-5.4401ZM27.3448 20.2704c0 1.0943-.8869 1.9815-1.9811 1.9815-1.0945 0-1.9814-.8872-1.9814-1.9815 0-1.0942.8869-1.9813 1.9814-1.9813 1.0942-.0001 1.9811.8871 1.9811 1.9813ZM92.5 38.5196c0 1.0942-.8869 1.9814-1.981 1.9814s-1.9814-.8872-1.9814-1.9814c0-1.0943.8871-1.981 1.9814-1.981 1.0942 0 1.981.8867 1.981 1.981Z" fill="#fff"/>
</svg>
