<svg width="142" height="60" viewBox="0 0 142 60" fill="none" xmlns="http://www.w3.org/2000/svg">
  <path d="M31.215 33.3721c.1642 1.2524 1.1497 2.3816 2.5869 2.3816.9445 0 1.8273-.3901 2.2585-1.1498l3.3261.3491c-1.0061 2.4022-3.1208 3.5314-5.6256 3.5314-3.3672 0-5.8925-2.6075-5.8925-6.0363 0-3.4492 2.4843-6.0362 5.8514-6.0362 3.1003 0 5.8925 2.1353 5.8925 6.8575v.1232l-8.3973-.0205Zm-.0821-2.1558h5.0302c-.1643-1.1293-1.1293-2.1764-2.4844-2.1764-1.355 0-2.2995.9855-2.5458 2.1764Zm58.1244 2.1558c.1642 1.2524 1.1497 2.3816 2.5869 2.3816.9445 0 1.8273-.3901 2.2585-1.1498l3.3055.3491c-1.006 2.4022-3.1208 3.5314-5.6256 3.5314-3.3671 0-5.8925-2.6075-5.8925-6.0363 0-3.4492 2.4843-6.0362 5.8515-6.0362 3.1002 0 5.8925 2.1353 5.8925 6.8575v.1232l-8.3768-.0205Zm-.0822-2.1558h5.0302c-.1642-1.1293-1.1292-2.1764-2.4843-2.1764-1.355 0-2.2995.9855-2.5459 2.1764Zm-74.7343 6.9601V35.61h1.1293V24.6667h-1.0677v-2.5664h4.2295V27.11c0 .3901-.0411.8828-.0411.8828.8418-1.0265 2.0942-1.622 3.4082-1.622 2.4433 0 4.1884 1.5399 4.1884 4.1679v5.0507h1.1293v2.5665h-5.4614v-2.5665h1.1292V31.36c0-1.4167-.9033-2.0121-1.9094-2.0121-.9444 0-1.7657.5133-2.3816 1.2729v4.9686h1.3756v2.5665h-5.7283v.0205Zm52.4372 0V35.61h1.1293V24.6667H66.878v-2.5664h4.2706V27.11c0 .3901-.0411.8828-.0411.8828.8418-1.0265 2.0942-1.622 3.4082-1.622 2.4432 0 4.1884 1.5399 4.1884 4.1679v5.0507h1.1293v2.5665H74.372v-2.5665h1.1292V31.36c0-1.4167-.9034-2.0121-1.9094-2.0121-.9444 0-1.7657.5133-2.3816 1.2729v4.9686h1.3756v2.5665H66.878v.0205Zm-1.3345-8.9312v-2.5664h-2.0942v-4.5785h-3.2029v4.5785h-1.8273v2.5664h1.8273v7.2066c0 .9444.7802 1.7246 1.7246 1.7246h3.552v-2.5459h-1.5194c-.3079 0-.5748-.2669-.5748-.5749v-5.8104h2.1147ZM46.285 22.1003v2.7102h1.5604L43.965 35.61h-1.1703v2.5664h6.0568V35.61h-1.5604l.7391-2.1558h5.7077l.7392 2.1558h-1.6426v2.5664h6.0773V35.61h-1.1292l-4.8454-13.5097H46.285Zm2.7102 8.5821 1.8889-5.5024 1.9094 5.5024h-3.7983Zm-45.31283 7.494V35.61h1.62198V25.0568H3.3744v2.1353H.5v-5.0713h12.9964v5.0713H10.622v-2.1353H8.69203V35.61H10.314v2.5664H3.68237ZM81.0036 24.6667h-1.1292v-2.5664h4.3321v12.9348c0 .308.2669.5749.5749.5749h.616v2.5664h-2.6691c-.9445 0-1.7247-.7802-1.7247-1.7246V24.6667Zm25.1104 13.5097V35.61h1.375v-6.3648h-1.375v-2.5664h4.578V35.61h1.376v2.5664h-5.954Zm2.833-16.692c1.129 0 2.053.9239 2.074 2.0531 0 1.1498-.904 2.0326-2.074 2.0326-1.109.0206-2.033-.8828-2.033-1.9915v-.0411c-.02-1.1292.883-2.0531 2.033-2.0531Zm-6.262 5.1944h2.094v2.5664h-2.094v5.8104c0 .308.267.5749.575.5749h1.519v2.5664h-3.552c-.944 0-1.7246-.7802-1.7246-1.7246v-7.2065h-1.5398v-2.5664h1.5398v-4.5786h3.2026v4.558h-.02Zm15.665 2.5664c1.355 0 2.443.8418 2.69 1.6631h2.669v-4.3527h-2.628v1.3551c-.452-.7802-1.56-1.5399-3.162-1.5399-3.223 0-5.523 2.6075-5.523 6.0363 0 3.4287 2.484 6.0362 5.954 6.0362 2.443 0 4.517-1.1497 5.359-3.2234l-2.649-1.3756c-.41 1.0471-1.457 1.7451-2.628 1.7451-1.663 0-2.833-1.4577-2.833-3.2439s1.068-3.1003 2.751-3.1003Z" fill="#fff"/>
</svg>
