<svg width="142" height="60" viewBox="0 0 142 60" fill="none" xmlns="http://www.w3.org/2000/svg">
  <g clip-path="url(#a)" fill="#fff">
    <path d="m43.7698 31.9748-.7391 2.0558h-.0616c-.1231-.4635-.349-1.169-.7185-2.0155l-3.9623-9.7752h-3.8801v15.5799h2.5662v-9.614c0-.6046 0-1.2899-.0205-2.1364-.0205-.4233-.0616-.7457-.0821-.9876h.0616c.1231.6046.2669 1.0481.3695 1.3302l4.7629 11.3675h1.8066l4.7219-11.4683c.1026-.262.2053-.786.3079-1.2294h.0616c-.0616 1.1488-.1026 2.1767-.1231 2.8015v9.876h2.7304V22.1996h-3.7364l-4.0649 9.7752Zm10.3881-5.3814h2.6688v11.1659h-2.6688V26.5934Zm1.3549-4.7163c-.4516 0-.8212.1613-1.1291.4434-.3079.2822-.4722.645-.4722 1.0884 0 .4233.1643.7861.4722 1.0682.3079.2822.6775.4233 1.1291.4233.4517 0 .8418-.1612 1.1292-.4233.3079-.2821.4722-.6449.4722-1.0682 0-.4232-.1643-.786-.4722-1.0884-.2669-.2821-.657-.4434-1.1292-.4434Zm10.7782 4.6155c-.4927-.1007-1.006-.1612-1.4987-.1612-1.2112 0-2.3199.262-3.2437.786-.9238.5241-1.6629 1.2497-2.1351 2.1566-.4927.9272-.7391 1.9954-.7391 3.2248 0 1.0683.2464 2.0155.7186 2.8822.4722.8465 1.1291 1.5318 2.0119 1.9954.8417.4635 1.8271.7054 2.9358.7054 1.2728 0 2.3609-.262 3.2231-.7457l.0206-.0202v-2.4186l-.1027.0806c-.3901.2822-.8417.524-1.2934.6651-.4722.1613-.9033.2419-1.2728.2419-1.0676 0-1.9093-.3023-2.5046-.9674-.6159-.645-.9239-1.5318-.9239-2.6404 0-1.1488.308-2.0558.9444-2.7209.6364-.6651 1.4781-1.0077 2.5046-1.0077.8623 0 1.7451.2821 2.5457.8465l.1027.0806v-2.5597l-.0206-.0202c-.349-.141-.739-.3023-1.2728-.4031Zm8.8073-.0806c-.657 0-1.2729.2016-1.8067.6248-.4516.3628-.7596.8869-1.0264 1.5117h-.0206v-1.9551h-2.6688v11.1659h2.6688v-5.7039c0-.9674.2053-1.7736.657-2.3581.4516-.6047 1.0265-.907 1.7245-.907.2463 0 .4927.0605.8006.1008.2875.0806.4928.1612.6365.262l.1026.0806v-2.6201l-.0616-.0202c-.1847-.1209-.5543-.1814-1.0059-.1814Zm7.2675-.0604c-1.8682 0-3.3669.5441-4.4139 1.6124-1.0675 1.0682-1.5808 2.5395-1.5808 4.3938 0 1.7333.5338 3.1441 1.5603 4.1721 1.0265 1.0077 2.4225 1.5317 4.1675 1.5317 1.8272 0 3.2848-.5441 4.3318-1.6325 1.0676-1.0884 1.5808-2.5396 1.5808-4.3334 0-1.7736-.4927-3.1845-1.4987-4.2124-.9649-1.0279-2.3814-1.5317-4.147-1.5317Zm2.1351 8.586c-.4927.6248-1.2728.9271-2.2377.9271-.9649 0-1.7451-.3023-2.2994-.9674-.5543-.6248-.8212-1.5318-.8212-2.6806 0-1.1892.2875-2.0961.8212-2.7411.5543-.645 1.3139-.9675 2.2788-.9675.9444 0 1.6835.3024 2.2173.9272.5337.6248.8212 1.5318.8212 2.7209-.0411 1.2093-.2669 2.1566-.7802 2.7814Zm9.4643-3.7085c-.8418-.3427-1.3755-.6047-1.6219-.8264-.2053-.2015-.3079-.4837-.3079-.8465 0-.3023.1231-.6046.4311-.8062.3079-.2015.6569-.3023 1.1702-.3023.4516 0 .9238.0806 1.3755.2015.4516.121.8622.3024 1.1907.5442l.1027.0806v-2.4589l-.0616-.0201c-.308-.121-.7186-.2419-1.2113-.3427-.4927-.0806-.9444-.1209-1.3139-.1209-1.2728 0-2.3199.3023-3.1411.9674-.8212.6249-1.2112 1.4714-1.2112 2.459 0 .524.0821.9876.2669 1.3705.1847.3829.4516.7457.8212 1.0481.3695.2821.9033.6046 1.6423.9069.6159.2621 1.0881.4636 1.3755.6248.2875.1613.4722.3427.6159.4838.1027.1612.1643.3628.1643.6248 0 .7457-.5749 1.1085-1.7451 1.1085-.4516 0-.9238-.0806-1.4781-.262s-1.0676-.4434-1.4987-.7457l-.1026-.0807v2.5597l.0616.0202c.39.1814.8622.3023 1.437.4434.5749.1008 1.0881.1814 1.5398.1814 1.3755 0 2.5046-.3023 3.3053-.9675.8212-.6449 1.2523-1.4713 1.2523-2.5395 0-.7457-.2053-1.4108-.657-1.9147-.5953-.4837-1.3344-.9876-2.4019-1.3907Zm10.1008-4.8775c-1.868 0-3.367.5441-4.4141 1.6124-1.047 1.0682-1.5808 2.5395-1.5808 4.3938 0 1.7333.5338 3.1441 1.5603 4.1721 1.0266 1.0077 2.4226 1.5317 4.1676 1.5317 1.827 0 3.285-.5441 4.332-1.6325 1.067-1.0884 1.581-2.5396 1.581-4.3334 0-1.7736-.493-3.1845-1.499-4.2124-.965-1.0279-2.382-1.5317-4.147-1.5317Zm2.114 8.586c-.492.6248-1.272.9271-2.237.9271-.986 0-1.745-.3023-2.3-.9674-.554-.6248-.821-1.5318-.821-2.6806 0-1.1892.288-2.0961.821-2.7411.555-.645 1.314-.9675 2.279-.9675.924 0 1.684.3024 2.217.9272.534.6248.822 1.5318.822 2.7209 0 1.2093-.267 2.1566-.781 2.7814Zm17.8-6.1876v-2.1566h-2.69V23.288l-.082.0201-2.545.7458-.062.0201v2.5194h-4.024v-1.4108c0-.645.164-1.1489.452-1.4714.287-.3224.718-.4837 1.252-.4837.37 0 .76.0806 1.191.262l.102.0605v-2.2775l-.061-.0202c-.37-.1209-.862-.2015-1.499-.2015-.8 0-1.499.1814-2.135.4837-.636.3426-1.109.8062-1.458 1.431-.349.6047-.533 1.2899-.533 2.076v1.5519h-1.869v2.1365h1.869v9.0294h2.689V28.75h4.024v5.7442c0 2.3581 1.129 3.5473 3.387 3.5473.37 0 .76-.0605 1.129-.1209.391-.0807.678-.1814.842-.2621l.021-.0201v-2.1566l-.103.0806c-.164.1008-.308.1814-.554.2419-.206.0604-.39.0806-.534.0806-.534 0-.903-.1209-1.17-.4233-.247-.2821-.37-.7457-.37-1.431V28.75h2.731ZM0 17h12.5848v12.355H0V17ZM13.8989 17h12.5848v12.355H13.8989V17ZM0 30.6484h12.5848v12.3551H0V30.6484ZM13.8989 30.6484h12.5848v12.3551H13.8989V30.6484Z"/>
  </g>
  <defs>
    <clipPath id="a">
      <path fill="#fff" transform="translate(0 17)" d="M0 0h124v26H0z"/>
    </clipPath>
  </defs>
</svg>
