<svg width="135" height="60" viewBox="0 0 135 60" fill="none" xmlns="http://www.w3.org/2000/svg">
  <path d="M8.51 20.9493c2.7597-.2022 5.439 1.1764 6.898 3.4904.1632.2021.1632.285-.0804.4067-.6893.3654-1.3786.6894-2.0703 1.0547-.1632.0804-.2436.0804-.324-.0804-1.0961-1.744-3.20543-2.6379-5.2344-2.1507-2.23114.3239-4.01654 2.0704-4.46472 4.3015-.68931 2.5161.20217 5.193 2.31396 6.6959 1.13749.8525 2.55753 1.1764 3.93616.9328 1.3811-.2435 2.6379-1.0546 3.41-2.2335.1218-.1632.2022-.1632.3654-.0804.6503.3654 1.3397.7721 2.029 1.0547.285.1218.2435.2021.1218.4067-1.6637 2.6794-4.8301 4.058-7.91377 3.4101-3.93616-.6114-6.5351-2.9643-7.26338-6.4133-1.05712-5.0737 1.54182-9.3752 6.49125-10.5931.56997-.1607 1.17647-.2436 1.7854-.2021ZM53.5146 25.4922c1.5418.0414 3.0447.5675 4.2601 1.5418.1632.1632.2022.2436.0804.4068-.285.4871-.4871 1.1764-.8939 1.42-.4457.285-.8111-.4871-1.3397-.6893-1.0132-.4871-2.2311-.6503-3.3686-.4068-.4068.1218-.8111.3654-1.0547.7308-.1632.2021-.2435.4871-.1632.7721.0414.285.2436.4871.4872.6089 1.0157.5676 2.2311.609 3.3272.9743.5286.1632 1.0961.3654 1.6222.5676 1.2983.6089 2.0704 1.9875 1.8682 3.41-.0804 1.4614-1.1375 2.6793-2.5575 3.0447-2.4747.8525-5.2344.4457-7.3462-1.1375-.324-.2436-.4068-.4068-.1608-.7307.3654-.4458.5262-1.1765.9743-1.3787.4068-.2021.8111.5286 1.2593.7697 1.2179.6893 2.6379.9329 4.0166.609.6089-.0804 1.096-.609 1.2178-1.2179.1218-.8525-.4871-1.2179-1.135-1.4201-1.1375-.3239-2.314-.5285-3.449-.8939-1.9486-.6089-2.7597-1.6636-2.7183-3.449.1632-1.6222 1.3396-2.9229 2.9229-3.2858.6893-.1656 1.42-.246 2.1507-.246ZM41.2191 25.4943c1.705-.0414 3.3687.5286 4.7083 1.5418.1632.1632.2022.2436.0804.4458-.324.4871-.4872 1.1764-.9329 1.42-.4068.2436-.8111-.4871-1.2982-.6893-1.1375-.6089-2.4748-.7307-3.6926-.285-.5676.1218-.9329.6479-.9329 1.2568 0 .609.5675.8112 1.0157.9329 1.2568.3654 2.5575.609 3.7729 1.0547 1.8683.6504 2.638 1.8268 2.5162 3.6536-.1632 1.5833-1.3787 2.8815-2.9619 3.1665-2.3943.6893-4.9519.2436-6.9394-1.2593-.324-.2022-.4458-.4068-.1632-.7721.285-.3654.5285-1.1351.9329-1.3397.4457-.2021.8525.5286 1.2982.7307 1.2179.7308 2.6379.9329 3.9776.6504.6893-.1218 1.2179-.6893 1.2593-1.3786.0414-.8111-.5676-1.0961-1.1765-1.2593-1.0961-.324-2.2311-.5675-3.3272-.8939-2.0704-.609-2.9229-1.7854-2.8011-3.5708.2436-1.7051 1.5832-3.0447 3.3272-3.2469.5261-.0779 1.0133-.1169 1.3372-.1583ZM95.2341 32.7566c0 2.1508.0804 4.3429 0 6.4937-.0804 2.4747-1.8682 3.8947-4.3819 3.6512-.7722-.0414-1.5418-.285-2.2312-.6893-.1632-.1218-.2435-.2436-.1218-.4458.0415-.0804.0804-.1632.0804-.2436.2022-.4457.2436-1.0157.5676-1.2592.3239-.285.6893.2849 1.0546.4067.609.2022 1.2569.0804 1.744-.3239.4872-.4068.7308-1.0133.6893-1.6222V26.2653c0-.3239.0415-.4457.3654-.4067h1.9072c.3239 0 .3653.0804.3653.3653v6.5741M17.8042 29.5509v-7.9941c0-.324.0804-.3654.3654-.3654h2.0289c.2022 0 .2436.0414.2436.2436v16.2732c0 .2436-.1218.285-.285.285h-1.9875c-.285 0-.3654-.0804-.3654-.4068v-8.0355ZM95.558 22.7334c0 .4457-.1632.8915-.4872 1.1765-.3239.3239-.7307.4871-1.1764.4457-.8525-.0804-1.5419-.7697-1.5419-1.6222 0-.8939.6894-1.5832 1.5419-1.6636.4457-.0414.8939.1632 1.2178.4457.324.3264.4872.7722.4458 1.2179ZM73.0347 29.6731c.0414 1.5418-.5676 3.0423-1.6637 4.1384-1.096 1.0546-2.5965 1.6636-4.1383 1.5418h-2.8815c-.2849 0-.3653-.039-.3653-.3654V24.1927c0-.3654.0804-.4457.4067-.4068 1.6637.0804 3.3687-.2021 4.9909.324 2.3115.7746 3.6926 2.8863 3.6512 5.5632Zm2.9618-1.135c-.3653-4.058-3.3686-6.8591-7.4266-7.2634-2.3943-.2436-4.83-.0414-7.2244-.0804-.3239 0-.285.1632-.285.3654v16.071c0 .285.0804.3654.3654.3654h6.1283c1.1351 0 2.2312-.2022 3.2883-.609 3.6536-1.3421 5.5608-4.5475 5.154-8.849ZM85.9 35.3564c-1.5004 1.0157-3.5294.6503-4.5451-.8525-1.0961-1.6636-1.0157-3.8144.1218-5.3976.8111-1.0547 2.1922-1.5005 3.449-1.0961 1.3397.3653 2.353 1.5028 2.5161 2.8815.0804.2849.0804.5261.1218.8111 0 1.5832-.4457 2.8425-1.6636 3.6536Zm-1.8268-9.8624c-1.705-.0414-3.3272.609-4.5037 1.8269-1.2178 1.2178-1.8268 2.8814-1.7464 4.5451-.1218 1.7464.5286 3.41 1.7464 4.6254 1.2179 1.2179 2.8815 1.8682 4.5865 1.7854 3.5708 0 6.1284-2.6793 6.1284-6.3719-.0025-3.6926-2.5576-6.4109-6.2112-6.4109ZM105.866 35.3564c-1.5 1.0157-3.529.6503-4.586-.8525-1.096-1.6247-1.016-3.773.121-5.3976.812-1.0547 2.193-1.5005 3.449-1.1375 1.34.3653 2.353 1.5004 2.558 2.9229.041.2849.08.5675.08.8111.122 1.42-.487 2.8011-1.622 3.6536ZM104 25.494c-1.705-.0414-3.327.609-4.5033 1.8269-1.1765 1.2178-1.8269 2.84-1.744 4.5451 0 3.7754 2.5963 6.4108 6.3303 6.4108 3.571 0 6.128-2.6379 6.128-6.3719-.002-3.7315-2.518-6.4109-6.211-6.4109ZM29.1672 36.3687c-1.3811.324-2.8011-.285-3.2055-1.3396-.5675-1.5005.5676-2.8815 2.3944-2.9229.5675 0 1.1375.1218 1.705.3239 1.0157.4458 1.2179.7722 1.2179 1.8682-.0025 1.0961-.4896 1.7051-2.1118 2.0704Zm4.7472-2.7597v-4.0165c.0804-1.6636-.9743-3.164-2.5575-3.6512-2.3529-.8525-4.9908-.4871-7.0198 1.0157-.5286.3654-.6089.6893-.2022 1.2179.2022.285.4068.6089.5676.9743.1217.1632.1631.2021.3239.0414.8111-.7721 1.9072-1.2569 3.0447-1.3811 1.4614-.2021 2.8815.5286 3.125 1.7854.0804.6504.1218 1.3397.0804 1.99 0 .2022-.0804.1632-.1632.0414-1.0961-.9743-2.5575-1.4614-4.0165-1.3396-1.5004-.0414-2.9229.8111-3.5708 2.1507-.6893 1.3397-.5286 2.9619.3654 4.1798 1.42 2.0289 5.0736 2.2311 6.9808.4457.1218-.0804.2436-.1632.3654-.285v.4872c-.1218.6089.0803.8111.7307.7307.5675-.0414 1.0961-.0414 1.6636 0 .2436 0 .285-.0414.285-.324-.0025-1.342-.0025-2.6817-.0025-4.0628Z" fill="#fff"/>
</svg>
