<svg width="149" height="60" viewBox="0 0 149 60" fill="none" xmlns="http://www.w3.org/2000/svg">
  <path d="M77.1879 37.3248c-1.0191.8918-2.293 1.4013-3.5668 1.4013-1.4013 0-2.4204-.3822-3.3121-1.1465-.7644-.7643-1.1465-1.9108-1.1465-3.3121 0-1.656.6369-3.1847 1.9108-4.3312l.1274-.1274 6.1146 7.3886-.1274.1273ZM70.309 23.6943c-.1274-1.1465.3821-2.1656 1.1465-2.6752.8917-.5095 2.0382-.3822 2.6751.2548.7643.6369 1.0191 1.4013 1.0191 2.5478 0 1.656-.7643 2.9299-2.4204 4.2038l-.1273.1274v-.1274c-1.2739-1.4013-2.0383-2.5478-2.293-4.3312Zm13.121 15.414c-.637 0-1.2739-.2548-1.7835-.637-.5095-.3821-1.0191-1.0191-1.656-1.9108v-.2548c.8917-1.4012 1.2739-3.0573 1.2739-4.9681 0-.3822 0-.8917-.1274-1.2739 0-.2548.1274-.3822.3822-.5096l1.5286-.3821v-.2548h-5.0955v.2548l1.5286.2548c.2548 0 .3822.1273.3822.2547.1274.1274.1274.2548.2548.5096 0 .3821.1274.8917.1274 1.4013 0 1.4012-.2548 2.6751-.8918 3.8216l-.1273.2548-5.9873-7.0064.1274-.1274c2.6751-1.2739 3.949-2.8025 3.949-4.7133 0-1.2739-.3821-2.1657-1.1465-2.8026C75.2771 20.3822 74.258 20 73.1115 20c-1.4013 0-2.5478.3822-3.5669 1.1465-.8917.7643-1.4012 1.7834-1.4012 3.0573 0 .7644.1273 1.4013.3821 2.0382.2548.637.8917 1.6561 1.7835 2.8026l.1273.1274-.1273.1274c-2.5478 1.4012-3.8217 3.1847-3.8217 5.3503 0 1.5286.6369 2.8025 1.7834 3.6942 1.1465.8918 2.8026 1.4013 4.586 1.4013 1.9109 0 3.6943-.6369 5.223-1.7834l.1274-.1274.1273.1274c.8918 1.1465 2.1656 1.7834 3.4395 1.7834.637 0 1.2739-.1274 1.9109-.3821l-.1274-.3822c0 .1274 0 .1274-.1274.1274ZM88.653 29.0437c.1274 2.5478.1274 3.3121.1274 5.6051v4.8408h-3.3121V20.3813h3.3121s1.5286 5.6051 1.9108 6.7516c.3822 1.1465.6369 2.1656.7643 3.0573-.1274-1.9108-.1274-4.2038-.1274-6.1146v-3.8217h3.1847v19.1083h-2.9299s-1.7834-5.8599-2.1656-7.1338c-.2548-.7643-.5095-1.7834-.7643-3.1847ZM105.978 29.9363c0 8.2803-1.402 9.9363-4.586 9.9363-3.0577 0-4.5863-1.2739-4.5863-9.9363 0-8.4076 1.2738-9.9363 4.5863-9.9363 3.312 0 4.586 1.5287 4.586 9.9363Zm-3.695 0c0-3.0573 0-4.8408-.127-6.242-.127-1.4013-.382-1.6561-.892-1.6561-.637 0-.764.2548-.891 1.6561-.128 1.2739-.128 3.3121-.128 6.242 0 3.4395 0 4.8408.128 6.242.127 1.5287.382 1.6561.891 1.6561.51 0 .765-.1274.892-1.6561.127-1.4012.127-2.8025.127-6.242ZM117.57 34.0134c0 3.949-1.784 5.4777-4.841 5.4777h-4.458V20.3828h4.458c3.44 0 4.331 2.0382 4.331 5.2229 0 2.4204-.891 3.5669-2.42 3.6943 1.656 0 2.93 1.6561 2.93 4.7134Zm-5.86-3.5669v6.7516h.892c1.019 0 1.274-.6369 1.274-3.5669 0-2.1656-.255-3.1847-1.402-3.1847h-.764Zm0-7.8981v5.4777h.892c.891 0 1.146-.7643 1.146-2.4204 0-2.1656-.255-3.0573-1.401-3.0573h-.637ZM119.608 20.2539v19.2357h7.771v-2.93h-4.204V20.2539h-3.567ZM129.29 20.2539v19.2357h7.771v-2.93h-4.331v-5.4777h3.439v-2.6751h-3.439v-5.223h3.821v-2.9299h-7.261ZM9.79936 34.0119c0 3.949-1.78344 5.4777-4.84076 5.4777H.5V20.2539h4.4586c3.43949 0 4.33121 2.0382 4.33121 5.2229 0 2.4204-.89172 3.5669-2.42038 3.6943 1.65605.1274 2.92993 1.7834 2.92993 4.8408ZM3.93949 30.445v6.7516h.89172c1.01911 0 1.27389-.637 1.27389-3.5669 0-2.1656-.25478-3.1847-1.40128-3.1847h-.76433Zm0-7.8981v5.4777h.89172c.89172 0 1.1465-.7643 1.1465-2.4204 0-2.1656-.25478-3.0573-1.40128-3.0573h-.63694ZM29.2898 29.6807c2.1656.6369 2.5478 3.1847 2.5478 5.4777 0 1.7834 0 3.4395.2547 4.3312h-3.5668c-.1274-.7644-.2548-1.1465-.2548-2.8026v-2.4204c0-1.5286-.5096-2.6751-1.6561-2.9299h-.2548v8.2803H22.793V20.2539h5.2229c2.5478 0 4.0764 1.4013 4.0764 4.8408.1274 3.0573-1.2739 4.3312-2.8025 4.586Zm-2.93-7.0064v5.6051h1.0192c.8917 0 1.1465-.637 1.1465-2.4204 0-2.8025-.5096-3.3121-1.6561-3.3121.1274.1274-.5096.1274-.5096.1274ZM37.57 29.0437c.1274 2.5478.1274 3.3121.1274 5.6051v4.8408h-3.3121V20.2539h3.3121s1.5286 5.6051 1.9108 6.7516c.3821 1.1465.6369 2.1656.7643 3.0573-.1274-1.9108-.1274-4.2038-.1274-6.1146v-3.6943h3.1847v19.2357h-2.9299s-1.7834-5.8599-2.1656-7.1338c-.2548-.8917-.5096-1.9108-.7643-3.3121ZM46.105 20.2539v19.2357h7.7707v-2.93h-4.3312v-5.4777h3.3121v-2.6751h-3.3121v-5.223h3.8216v-2.9299H46.105ZM59.0988 35.0318c0 2.1657.3821 2.5478 1.2739 2.5478.6369 0 1.1465-.3821 1.1465-2.5478 0-1.9108-1.2739-3.3121-2.8026-4.9681-1.2739-1.5287-2.8025-3.6943-2.8025-5.4777 0-2.8026 1.2738-4.586 4.0764-4.586 2.8025 0 4.2038 1.5287 4.2038 4.3312 0 .637-.1274 1.1465-.2548 1.5287h-2.9299c0-.2548.1274-.7644.1274-1.2739 0-1.7835-.2548-2.4204-1.0191-2.4204-.7643 0-.8917.7643-.8917 2.0382 0 1.7835 1.4012 3.0573 2.5477 4.586 1.6561 2.0382 3.0574 3.6943 3.0574 5.7325 0 3.0573-1.2739 5.4777-4.4586 5.4777-2.6752 0-4.4586-1.4013-4.4586-4.7134 0-.7643 0-1.4013.2547-2.0382h3.1847c-.2547.5096-.2547 1.0191-.2547 1.7834ZM11.2007 39.49l2.8025-19.363h3.4395l3.4395 19.363h-3.6943l-.3821-3.1847h-2.1656l-.3822 3.0573h-3.0573v.1274Zm3.5669-5.2229h1.7834s-.2548-2.1656-.3822-3.6943c-.1274-.8917-.3821-3.6943-.6369-5.6051 0 1.9108-.3822 4.7134-.3822 5.6051-.1274 1.5287-.3821 3.6943-.3821 3.6943Z" fill="#fff"/>
</svg>
