<svg width="126" height="60" viewBox="0 0 126 60" fill="none" xmlns="http://www.w3.org/2000/svg">
  <path d="m39.3959 31.836 2.4797 7.3117h-3.6163l-2.273-7.0265h-3.203v7.0265h-3.5645V20.7388h10.0737l2.5056 2.4891v6.1709l-2.4022 2.4372Zm-1.1882-7.6488h-5.4244v4.5115h5.4244v-4.5115ZM54.1282 31.836l2.4797 7.3117h-3.6163l-2.273-7.0265h-3.203v7.0265h-3.5645V20.7388h10.0737l2.5056 2.4891v6.1709l-2.4022 2.4372ZM52.94 24.1872h-5.4244v4.5115H52.94v-4.5115ZM63.2801 31.8619l-5.631-11.149h3.8229l3.5646 7.1302 3.6163-7.1302h3.8487l-5.6568 11.0972v7.3117h-3.5647v-7.2599ZM74.8614 25.8985h-1.6273l.7491-2.4113v-2.7743h2.9963v2.2817l-2.1181 2.9039ZM80.952 39.1218l-2.5055-2.4891v-3.2669h3.5646v2.3075h5.4243v-3.3706l-6.9225-1.5557-2.0664-2.2298v-5.2893l2.5055-2.515h7.5166L91 23.2279v3.2669h-3.5646v-2.3076h-5.4243v3.3448l6.9483 1.6075L91 31.3434v5.2893l-2.5314 2.4891H80.952ZM1 39.1237V20.7148h10.2288l2.4797 2.5151v5.0559l-1.834 1.6853 1.834 1.6076v5.0559l-2.4797 2.4891H1ZM4.5904 28.208h5.5277v-4.0447H4.5904v4.0447Zm0 7.4673h5.5277v-4.0188H4.5904v4.0188ZM21.9252 36.5955l-.5172-1.6541-.5344 1.6541h-1.7413l1.3965 1.0273-.5345 1.6542 1.4137-1.0099 1.3965 1.0099-.5345-1.6542 1.3965-1.0273h-1.7413ZM23.8058 22.9599l-2.3963-2.1591-5.9134 5.2932v4.353l8.3097-7.4871ZM27.306 30.4465v-4.353l-3.2067-2.8904-2.4308 2.1765 5.6375 5.0669ZM21.3922 27.8711l-5.8961 5.2758v4.3704l8.3097-7.4871-2.4136-2.1591ZM24.0993 30.2734l-2.4308 2.1591 5.6375 5.0843v-4.3704l-3.2067-2.873Z" fill="#fff"/>
</svg>
